<svg xmlns="http://www.w3.org/2000/svg" width="14.411" height="17.293" viewBox="0 0 14.411 17.293">
  <g id="bell" transform="translate(-2)">
    <path id="Path_5" data-name="Path 5" d="M15.963,12.186a4.826,4.826,0,0,1-1.714-3.693V6.485A5.048,5.048,0,0,0,9.926,1.5V.721a.721.721,0,1,0-1.441,0V1.5A5.047,5.047,0,0,0,4.162,6.485V8.494a4.831,4.831,0,0,1-1.721,3.7,1.261,1.261,0,0,0,.82,2.219H15.15a1.261,1.261,0,0,0,.813-2.224Z" fill="#141c2d"/>
    <path id="Path_6" data-name="Path 6" d="M10.973,23.162A2.706,2.706,0,0,0,13.621,21H8.326A2.706,2.706,0,0,0,10.973,23.162Z" transform="translate(-1.768 -5.869)" fill="#141c2d"/>
  </g>
</svg>
