<svg xmlns="http://www.w3.org/2000/svg" width="21.528" height="21.471" viewBox="0 0 21.528 21.471">
  <g id="hut" transform="translate(0)">
    <g id="Group_9" data-name="Group 9" transform="translate(0 0)">
      <path id="Path_7" data-name="Path 7" d="M21.068,22H14.075a.917.917,0,0,1-.914-.914V16.74a1.965,1.965,0,1,0-3.931,0v4.342A.917.917,0,0,1,8.316,22h-6.9A.917.917,0,0,1,.5,21.082V9.381A2.554,2.554,0,0,1,1.551,7.324L10.738.7A.892.892,0,0,1,11.79.7l9.187,6.628a2.554,2.554,0,0,1,1.051,2.057V21.127a.986.986,0,0,1-.96.868Zm-6.079-1.783H20.2V9.381a.781.781,0,0,0-.32-.594L11.241,2.525,2.6,8.741a.781.781,0,0,0-.32.594V20.168H7.493V16.74a3.748,3.748,0,1,1,7.5,0Z" transform="translate(-0.5 -0.525)" fill="#c5cad5"/>
    </g>
  </g>
</svg>
