<svg xmlns="http://www.w3.org/2000/svg" width="16.58" height="13.771" viewBox="0 0 16.58 13.771">
  <g id="left-arrow" transform="translate(0 -41.674)">
    <g id="Group_35" data-name="Group 35" transform="translate(0 41.674)">
      <path id="Path_34" data-name="Path 34" d="M15.648,47.259l.026.006H4.579l3.488-3.5a.916.916,0,0,0,0-1.288l-.543-.543a.908.908,0,0,0-1.281,0L.264,47.916a.914.914,0,0,0,0,1.286l5.979,5.979a.909.909,0,0,0,1.281,0l.543-.543A.9.9,0,0,0,8.331,54a.871.871,0,0,0-.264-.629L4.54,49.854H15.66a.94.94,0,0,0,.92-.93v-.768A.922.922,0,0,0,15.648,47.259Z" transform="translate(0 -41.674)" fill="#141c2d"/>
    </g>
  </g>
</svg>
