<svg xmlns="http://www.w3.org/2000/svg" width="17.292" height="17.293" viewBox="0 0 17.292 17.293">
  <path id="settings" d="M16.344,6.769,14.989,6.6a6.809,6.809,0,0,0-.41-.99l.837-1.077A1.071,1.071,0,0,0,15.328,3.1L14.193,1.969a1.074,1.074,0,0,0-1.43-.092l-1.076.837A6.785,6.785,0,0,0,10.7,2.3L10.524.951A1.079,1.079,0,0,0,9.453,0H7.839A1.079,1.079,0,0,0,6.769.949L6.6,2.3a6.706,6.706,0,0,0-.991.41L4.529,1.877A1.072,1.072,0,0,0,3.1,1.965L1.969,3.1A1.074,1.074,0,0,0,1.877,4.53l.837,1.076a6.73,6.73,0,0,0-.41.99L.951,6.769A1.079,1.079,0,0,0,0,7.839V9.453a1.079,1.079,0,0,0,.949,1.071L2.3,10.7a6.809,6.809,0,0,0,.41.99l-.837,1.077a1.071,1.071,0,0,0,.088,1.426L3.1,15.324a1.075,1.075,0,0,0,1.43.091l1.076-.837a6.652,6.652,0,0,0,.99.41l.172,1.352a1.079,1.079,0,0,0,1.071.953H9.453a1.079,1.079,0,0,0,1.071-.949l.172-1.355a6.809,6.809,0,0,0,.99-.41l1.077.837a1.071,1.071,0,0,0,1.426-.088l1.135-1.135a1.073,1.073,0,0,0,.092-1.43l-.837-1.076a6.652,6.652,0,0,0,.41-.99l1.352-.172a1.079,1.079,0,0,0,.951-1.071V7.839a1.078,1.078,0,0,0-.948-1.071Zm-7.7,5.48a3.6,3.6,0,1,1,3.6-3.6,3.607,3.607,0,0,1-3.6,3.6Z" fill="#141c2d"/>
</svg>
