<svg id="transaction" xmlns="http://www.w3.org/2000/svg" width="22.611" height="21.741" viewBox="0 0 22.611 21.741">
  <path id="Path_23" data-name="Path 23" d="M26,7H8.609A2.609,2.609,0,0,0,6,9.609V26.132a2.609,2.609,0,0,0,2.609,2.609H26a2.609,2.609,0,0,0,2.609-2.609V9.609A2.609,2.609,0,0,0,26,7Zm.87,19.132A.87.87,0,0,1,26,27H8.609a.87.87,0,0,1-.87-.87V9.609a.87.87,0,0,1,.87-.87H26a.87.87,0,0,1,.87.87Z" transform="translate(-6 -7)" fill="#c5cad5"/>
  <path id="Path_24" data-name="Path 24" d="M28.609,23.345a.87.87,0,0,0,0-1.739h-9.64L20.1,20.479a.87.87,0,0,0-1.231-1.231l-2.609,2.609a.87.87,0,0,0,.613,1.487Z" transform="translate(-11.651 -13.779)" fill="#c5cad5"/>
  <path id="Path_25" data-name="Path 25" d="M30.61,36H18.87a.87.87,0,0,0,0,1.739h9.64l-1.126,1.126A.87.87,0,0,0,28.614,40.1l2.609-2.609A.87.87,0,0,0,30.61,36Z" transform="translate(-12.782 -23.39)" fill="#c5cad5"/>
</svg>
