<svg id="turkey" xmlns="http://www.w3.org/2000/svg" width="22" height="22" viewBox="0 0 22 22">
  <circle id="Ellipse_28" data-name="Ellipse 28" cx="11" cy="11" r="11" fill="#e53030"/>
  <g id="Group_65" data-name="Group 65" transform="translate(5.395 6.531)">
    <path id="Path_79" data-name="Path 79" d="M21.368,15.716l1.044-1.343-1.608.454-.942-1.486-.074,1.772-1.569.443,1.525.6-.074,1.74,1.053-1.353,1.562.617Z" transform="translate(-10.936 -10.588)" fill="#fff"/>
    <path id="Path_80" data-name="Path 80" d="M13.092,17.8a3.665,3.665,0,0,1-3.584-3.746,3.667,3.667,0,0,1,3.584-3.745A3.062,3.062,0,0,1,16.026,12a3.94,3.94,0,0,0-3.87-2.607,4.5,4.5,0,0,0-4.4,4.6,4.5,4.5,0,0,0,4.4,4.6,3.543,3.543,0,0,0,3.457-1.931A2.65,2.65,0,0,1,13.092,17.8Z" transform="translate(-7.752 -9.385)" fill="#fff"/>
  </g>
</svg>
